<mxfile host="Electron" modified="2023-09-22T13:53:54.774Z" agent="Mozilla/5.0 (X11; Linux x86_64) AppleWebKit/537.36 (KHTML, like Gecko) draw.io/21.7.5 Chrome/114.0.5735.289 Electron/25.8.1 Safari/537.36" etag="koU1RgCcmn2RsS3FHpvv" version="21.7.5" type="device">
  <diagram name="Page-1" id="6Km8QZz8bJo6u0h8aWTI">
    <mxGraphModel dx="607" dy="366" grid="1" gridSize="10" guides="1" tooltips="1" connect="1" arrows="1" fold="1" page="1" pageScale="1" pageWidth="850" pageHeight="1100" math="0" shadow="0">
      <root>
        <mxCell id="0" />
        <mxCell id="1" parent="0" />
        <mxCell id="NnpkMq58q0QWPQ78h3Su-34" value="" style="rounded=0;whiteSpace=wrap;html=1;" vertex="1" parent="1">
          <mxGeometry x="110" y="60" width="480" height="290" as="geometry" />
        </mxCell>
        <mxCell id="NnpkMq58q0QWPQ78h3Su-1" value="" style="rounded=0;whiteSpace=wrap;html=1;" vertex="1" parent="1">
          <mxGeometry x="180" y="120" width="80" height="30" as="geometry" />
        </mxCell>
        <mxCell id="NnpkMq58q0QWPQ78h3Su-2" value="" style="rounded=0;whiteSpace=wrap;html=1;" vertex="1" parent="1">
          <mxGeometry x="180" y="200" width="80" height="30" as="geometry" />
        </mxCell>
        <mxCell id="NnpkMq58q0QWPQ78h3Su-3" value="" style="rounded=0;whiteSpace=wrap;html=1;" vertex="1" parent="1">
          <mxGeometry x="180" y="280" width="80" height="30" as="geometry" />
        </mxCell>
        <mxCell id="NnpkMq58q0QWPQ78h3Su-4" value="" style="rounded=0;whiteSpace=wrap;html=1;" vertex="1" parent="1">
          <mxGeometry x="450" y="120" width="80" height="30" as="geometry" />
        </mxCell>
        <mxCell id="NnpkMq58q0QWPQ78h3Su-5" value="" style="rounded=0;whiteSpace=wrap;html=1;" vertex="1" parent="1">
          <mxGeometry x="450" y="200" width="80" height="30" as="geometry" />
        </mxCell>
        <mxCell id="NnpkMq58q0QWPQ78h3Su-6" value="" style="verticalLabelPosition=bottom;verticalAlign=top;html=1;shape=mxgraph.flowchart.summing_function;" vertex="1" parent="1">
          <mxGeometry x="310" y="70" width="20" height="20" as="geometry" />
        </mxCell>
        <mxCell id="NnpkMq58q0QWPQ78h3Su-7" value="" style="verticalLabelPosition=bottom;verticalAlign=top;html=1;shape=mxgraph.flowchart.summing_function;" vertex="1" parent="1">
          <mxGeometry x="310" y="160" width="20" height="20" as="geometry" />
        </mxCell>
        <mxCell id="NnpkMq58q0QWPQ78h3Su-8" value="" style="verticalLabelPosition=bottom;verticalAlign=top;html=1;shape=mxgraph.flowchart.summing_function;" vertex="1" parent="1">
          <mxGeometry x="380" y="160" width="20" height="20" as="geometry" />
        </mxCell>
        <mxCell id="NnpkMq58q0QWPQ78h3Su-9" value="" style="verticalLabelPosition=bottom;verticalAlign=top;html=1;shape=mxgraph.flowchart.summing_function;" vertex="1" parent="1">
          <mxGeometry x="380" y="70" width="20" height="20" as="geometry" />
        </mxCell>
        <mxCell id="NnpkMq58q0QWPQ78h3Su-11" value="" style="endArrow=classic;html=1;rounded=0;entryX=0;entryY=0.5;entryDx=0;entryDy=0;entryPerimeter=0;" edge="1" parent="1" target="NnpkMq58q0QWPQ78h3Su-6">
          <mxGeometry width="50" height="50" relative="1" as="geometry">
            <mxPoint x="120" y="80" as="sourcePoint" />
            <mxPoint x="160" y="70" as="targetPoint" />
          </mxGeometry>
        </mxCell>
        <mxCell id="NnpkMq58q0QWPQ78h3Su-29" value="X[n]" style="edgeLabel;html=1;align=center;verticalAlign=middle;resizable=0;points=[];" vertex="1" connectable="0" parent="NnpkMq58q0QWPQ78h3Su-11">
          <mxGeometry x="-0.5873" y="-2" relative="1" as="geometry">
            <mxPoint as="offset" />
          </mxGeometry>
        </mxCell>
        <mxCell id="NnpkMq58q0QWPQ78h3Su-12" value="" style="endArrow=classic;html=1;rounded=0;entryX=0.5;entryY=0;entryDx=0;entryDy=0;" edge="1" parent="1" target="NnpkMq58q0QWPQ78h3Su-1">
          <mxGeometry width="50" height="50" relative="1" as="geometry">
            <mxPoint x="220" y="80" as="sourcePoint" />
            <mxPoint x="420" y="210" as="targetPoint" />
          </mxGeometry>
        </mxCell>
        <mxCell id="NnpkMq58q0QWPQ78h3Su-13" value="" style="endArrow=classic;html=1;rounded=0;entryX=0.5;entryY=0;entryDx=0;entryDy=0;exitX=0.5;exitY=1;exitDx=0;exitDy=0;" edge="1" parent="1" source="NnpkMq58q0QWPQ78h3Su-1" target="NnpkMq58q0QWPQ78h3Su-2">
          <mxGeometry width="50" height="50" relative="1" as="geometry">
            <mxPoint x="219.66" y="160" as="sourcePoint" />
            <mxPoint x="219.66" y="200" as="targetPoint" />
          </mxGeometry>
        </mxCell>
        <mxCell id="NnpkMq58q0QWPQ78h3Su-15" value="" style="endArrow=classic;html=1;rounded=0;entryX=0.5;entryY=0;entryDx=0;entryDy=0;exitX=0.5;exitY=1;exitDx=0;exitDy=0;" edge="1" parent="1">
          <mxGeometry width="50" height="50" relative="1" as="geometry">
            <mxPoint x="219.66" y="230" as="sourcePoint" />
            <mxPoint x="219.66" y="280" as="targetPoint" />
          </mxGeometry>
        </mxCell>
        <mxCell id="NnpkMq58q0QWPQ78h3Su-16" value="" style="endArrow=classic;html=1;rounded=0;exitX=0.5;exitY=1;exitDx=0;exitDy=0;entryX=0.5;entryY=1;entryDx=0;entryDy=0;entryPerimeter=0;" edge="1" parent="1" source="NnpkMq58q0QWPQ78h3Su-3" target="NnpkMq58q0QWPQ78h3Su-17">
          <mxGeometry width="50" height="50" relative="1" as="geometry">
            <mxPoint x="250" y="370" as="sourcePoint" />
            <mxPoint x="310" y="340" as="targetPoint" />
            <Array as="points">
              <mxPoint x="220" y="340" />
              <mxPoint x="320" y="340" />
            </Array>
          </mxGeometry>
        </mxCell>
        <mxCell id="NnpkMq58q0QWPQ78h3Su-17" value="" style="verticalLabelPosition=bottom;verticalAlign=top;html=1;shape=mxgraph.flowchart.summing_function;" vertex="1" parent="1">
          <mxGeometry x="310" y="240" width="20" height="20" as="geometry" />
        </mxCell>
        <mxCell id="NnpkMq58q0QWPQ78h3Su-18" value="" style="endArrow=classic;html=1;rounded=0;entryX=0;entryY=0.5;entryDx=0;entryDy=0;entryPerimeter=0;" edge="1" parent="1" target="NnpkMq58q0QWPQ78h3Su-17">
          <mxGeometry width="50" height="50" relative="1" as="geometry">
            <mxPoint x="220" y="251" as="sourcePoint" />
            <mxPoint x="310" y="220" as="targetPoint" />
          </mxGeometry>
        </mxCell>
        <mxCell id="NnpkMq58q0QWPQ78h3Su-19" value="" style="endArrow=classic;html=1;rounded=0;entryX=0;entryY=0.5;entryDx=0;entryDy=0;entryPerimeter=0;" edge="1" parent="1">
          <mxGeometry width="50" height="50" relative="1" as="geometry">
            <mxPoint x="220" y="170.5" as="sourcePoint" />
            <mxPoint x="310" y="169.5" as="targetPoint" />
          </mxGeometry>
        </mxCell>
        <mxCell id="NnpkMq58q0QWPQ78h3Su-31" value="-1" style="edgeLabel;html=1;align=center;verticalAlign=middle;resizable=0;points=[];fontStyle=1;spacing=23;" vertex="1" connectable="0" parent="NnpkMq58q0QWPQ78h3Su-19">
          <mxGeometry x="0.2238" relative="1" as="geometry">
            <mxPoint as="offset" />
          </mxGeometry>
        </mxCell>
        <mxCell id="NnpkMq58q0QWPQ78h3Su-20" value="" style="endArrow=classic;html=1;rounded=0;entryX=0.5;entryY=1;entryDx=0;entryDy=0;entryPerimeter=0;" edge="1" parent="1" target="NnpkMq58q0QWPQ78h3Su-7">
          <mxGeometry width="50" height="50" relative="1" as="geometry">
            <mxPoint x="320" y="240" as="sourcePoint" />
            <mxPoint x="370" y="190" as="targetPoint" />
          </mxGeometry>
        </mxCell>
        <mxCell id="NnpkMq58q0QWPQ78h3Su-21" value="" style="endArrow=classic;html=1;rounded=0;entryX=0.5;entryY=1;entryDx=0;entryDy=0;entryPerimeter=0;" edge="1" parent="1" target="NnpkMq58q0QWPQ78h3Su-6">
          <mxGeometry width="50" height="50" relative="1" as="geometry">
            <mxPoint x="319.66" y="160" as="sourcePoint" />
            <mxPoint x="319.66" y="100" as="targetPoint" />
          </mxGeometry>
        </mxCell>
        <mxCell id="NnpkMq58q0QWPQ78h3Su-22" value="" style="endArrow=classic;html=1;rounded=0;entryX=0.5;entryY=1;entryDx=0;entryDy=0;entryPerimeter=0;exitX=0.5;exitY=1;exitDx=0;exitDy=0;" edge="1" parent="1" source="NnpkMq58q0QWPQ78h3Su-5">
          <mxGeometry width="50" height="50" relative="1" as="geometry">
            <mxPoint x="389.65999999999997" y="240" as="sourcePoint" />
            <mxPoint x="389.65999999999997" y="180" as="targetPoint" />
            <Array as="points">
              <mxPoint x="490" y="260" />
              <mxPoint x="390" y="260" />
            </Array>
          </mxGeometry>
        </mxCell>
        <mxCell id="NnpkMq58q0QWPQ78h3Su-33" value="&lt;b&gt;0.25&lt;/b&gt;" style="edgeLabel;html=1;align=center;verticalAlign=middle;resizable=0;points=[];" vertex="1" connectable="0" parent="NnpkMq58q0QWPQ78h3Su-22">
          <mxGeometry x="-0.3028" y="-1" relative="1" as="geometry">
            <mxPoint as="offset" />
          </mxGeometry>
        </mxCell>
        <mxCell id="NnpkMq58q0QWPQ78h3Su-23" value="" style="endArrow=classic;html=1;rounded=0;entryX=0.5;entryY=1;entryDx=0;entryDy=0;entryPerimeter=0;" edge="1" parent="1">
          <mxGeometry width="50" height="50" relative="1" as="geometry">
            <mxPoint x="389.66" y="160" as="sourcePoint" />
            <mxPoint x="390" y="90" as="targetPoint" />
          </mxGeometry>
        </mxCell>
        <mxCell id="NnpkMq58q0QWPQ78h3Su-24" value="" style="endArrow=classic;html=1;rounded=0;entryX=0.5;entryY=0;entryDx=0;entryDy=0;exitX=0.5;exitY=1;exitDx=0;exitDy=0;" edge="1" parent="1">
          <mxGeometry width="50" height="50" relative="1" as="geometry">
            <mxPoint x="489.66" y="150" as="sourcePoint" />
            <mxPoint x="489.66" y="200" as="targetPoint" />
          </mxGeometry>
        </mxCell>
        <mxCell id="NnpkMq58q0QWPQ78h3Su-25" value="" style="endArrow=none;html=1;rounded=0;entryX=0;entryY=0.5;entryDx=0;entryDy=0;entryPerimeter=0;endFill=0;startArrow=classic;startFill=1;" edge="1" parent="1">
          <mxGeometry width="50" height="50" relative="1" as="geometry">
            <mxPoint x="400" y="170.5" as="sourcePoint" />
            <mxPoint x="490" y="169.5" as="targetPoint" />
          </mxGeometry>
        </mxCell>
        <mxCell id="NnpkMq58q0QWPQ78h3Su-32" value="&lt;b&gt;0.5&lt;/b&gt;" style="edgeLabel;html=1;align=center;verticalAlign=middle;resizable=0;points=[];" vertex="1" connectable="0" parent="NnpkMq58q0QWPQ78h3Su-25">
          <mxGeometry x="0.0407" y="4" relative="1" as="geometry">
            <mxPoint as="offset" />
          </mxGeometry>
        </mxCell>
        <mxCell id="NnpkMq58q0QWPQ78h3Su-26" value="" style="endArrow=classic;html=1;rounded=0;entryX=0;entryY=0.5;entryDx=0;entryDy=0;entryPerimeter=0;" edge="1" parent="1" target="NnpkMq58q0QWPQ78h3Su-9">
          <mxGeometry width="50" height="50" relative="1" as="geometry">
            <mxPoint x="330" y="80" as="sourcePoint" />
            <mxPoint x="380" y="30" as="targetPoint" />
          </mxGeometry>
        </mxCell>
        <mxCell id="NnpkMq58q0QWPQ78h3Su-27" value="" style="endArrow=classic;html=1;rounded=0;exitX=1;exitY=0.5;exitDx=0;exitDy=0;exitPerimeter=0;" edge="1" parent="1" source="NnpkMq58q0QWPQ78h3Su-9">
          <mxGeometry width="50" height="50" relative="1" as="geometry">
            <mxPoint x="410" y="79.66" as="sourcePoint" />
            <mxPoint x="580" y="80" as="targetPoint" />
          </mxGeometry>
        </mxCell>
        <mxCell id="NnpkMq58q0QWPQ78h3Su-30" value="Y[n]" style="edgeLabel;html=1;align=center;verticalAlign=middle;resizable=0;points=[];" vertex="1" connectable="0" parent="NnpkMq58q0QWPQ78h3Su-27">
          <mxGeometry x="0.6464" y="-2" relative="1" as="geometry">
            <mxPoint as="offset" />
          </mxGeometry>
        </mxCell>
        <mxCell id="NnpkMq58q0QWPQ78h3Su-28" value="" style="endArrow=classic;html=1;rounded=0;entryX=0.5;entryY=0;entryDx=0;entryDy=0;" edge="1" parent="1">
          <mxGeometry width="50" height="50" relative="1" as="geometry">
            <mxPoint x="490" y="80" as="sourcePoint" />
            <mxPoint x="489.66" y="120" as="targetPoint" />
          </mxGeometry>
        </mxCell>
      </root>
    </mxGraphModel>
  </diagram>
</mxfile>
